/vscmnt/brussel_pixiu_data/_data_brussel/112/vsc11236/PredSimResults/SUBJ06mtu3D/worker8.mot
version=1
nRows=8
nColumns=50
inDegrees=yes
endheader
                time	         pelvis_tilt	         pelvis_list	     pelvis_rotation	           pelvis_tx	           pelvis_ty	           pelvis_tz	       hip_flexion_r	     hip_adduction_r	      hip_rotation_r	        knee_angle_r	       ankle_angle_r	         mtp_angle_r	       hip_flexion_l	     hip_adduction_l	      hip_rotation_l	        knee_angle_l	       ankle_angle_l	         mtp_angle_l	    lumbar_extension	      lumbar_bending	     lumbar_rotation	 ercspn_r/activation	 intobl_r/activation	 extobl_r/activation	    abd_r/activation	    add_r/activation	hamstrings_r/activation	bifemsh_r/activation	glut_max_r/activation	iliopsoas_r/activation	rect_fem_r/activation	  vasti_r/activation	gastroc_r/activation	 soleus_r/activation	tib_ant_r/activation	 ercspn_l/activation	 intobl_l/activation	 extobl_l/activation	    abd_l/activation	    add_l/activation	hamstrings_l/activation	bifemsh_l/activation	glut_max_l/activation	iliopsoas_l/activation	rect_fem_l/activation	  vasti_l/activation	gastroc_l/activation	 soleus_l/activation	tib_ant_l/activation	
          0.00000000	         -5.65057416	          0.13209896	          2.58807613	          0.00000000	          0.93122600	         -0.01066258	         31.98762926	         -1.81058259	         -4.09193421	         -8.06834014	          0.33930889	          0.22682704	        -10.18318722	          0.19154529	         -7.30858032	        -11.21258868	          8.77086044	         32.32341238	         -7.13467464	         -1.25331099	         -3.92812073	          0.19298535	          0.12970568	          0.01000002	          0.01035295	          0.26498010	          0.10668941	          0.16283279	          0.03295720	          0.10127033	          0.01067239	          0.01000001	          0.01000031	          0.01000000	          0.49561096	          0.09356736	          0.01000000	          0.01000001	          0.06828133	          0.01000009	          0.01000098	          0.15396343	          0.02499847	          0.48939364	          0.01747114	          0.01000001	          0.25083577	          0.37194043	          0.02104422	
          0.01226608	         -5.74531100	          0.28812366	          2.58778454	          0.01654970	          0.92942120	         -0.00945741	         32.17325463	         -1.74352847	         -4.21057258	         -9.80143514	          0.02664072	          0.22498486	        -10.62616433	          0.18571550	         -7.68046819	        -12.02642596	          7.76471733	         34.18092705	         -6.82626744	         -1.08138148	         -4.38628946	          0.18324145	          0.10769009	          0.01000001	          0.00999999	          0.35999241	          0.10341465	          0.13519447	          0.13342795	          0.08408122	          0.01000010	          0.01000000	          0.01724009	          0.01450662	          0.51564485	          0.16041478	          0.01000000	          0.01000000	          0.05669160	          0.01450626	          0.01082833	          0.12783047	          0.03052811	          0.50998660	          0.01450610	          0.01777882	          0.21158370	          0.35109181	          0.01747228	
          0.02453216	         -5.81476366	          0.38884019	          2.58080775	          0.03357227	          0.92783585	         -0.00819832	         32.08891212	         -1.73062263	         -4.09086002	        -11.40697295	         -0.21343929	          0.19601499	        -10.93249703	          0.08486755	         -8.04836843	        -13.16580377	          6.64238764	         36.08022345	         -6.48778755	         -0.84225806	         -4.82278374	          0.15845434	          0.08941132	          0.01000001	          0.05300873	          0.30029847	          0.10843570	          0.11224727	          0.13016460	          0.06980969	          0.01000000	          0.01000000	          0.01431386	          0.01204434	          0.57123588	          0.13318680	          0.01000000	          0.01000000	          0.04706905	          0.01204410	          0.01671226	          0.10613318	          0.02534643	          0.51949389	          0.01204396	          0.01476116	          0.17567056	          0.32433827	          0.01450662	
          0.03679824	         -5.86217362	          0.46941907	          2.55377010	          0.05078120	          0.92657056	         -0.00680272	         31.85147558	         -1.71865675	         -4.04028450	        -12.78762060	         -0.55685634	          0.18278733	        -10.99699220	         -0.08831811	         -8.41638816	        -14.78111689	          5.37529373	         38.01524589	         -6.15566562	         -0.58755093	         -5.22534503	          0.17726241	          0.07423510	          0.01000001	          0.10945704	          0.33461982	          0.10505159	          0.09319500	          0.17081631	          0.05796055	          0.01000000	          0.01000001	          0.01188430	          0.01000000	          0.62002521	          0.14708095	          0.01000000	          0.01000000	          0.03907979	          0.01000009	          0.01387857	          0.08811869	          0.02104426	          0.51458703	          0.01000024	          0.01225574	          0.14585312	          0.29070676	          0.01204434	
          0.04906432	         -5.88691855	          0.52516932	          2.50930304	          0.06794118	          0.92573326	         -0.00528712	         31.57836291	         -1.68625929	         -4.04879884	        -14.13691215	         -0.86647955	          0.15200579	        -10.73681145	         -0.35159901	         -8.78330152	        -16.98460622	          3.92411832	         39.94618006	         -5.85611969	         -0.31081358	         -5.58772716	          0.17364875	          0.06163481	          0.01000001	          0.15604818	          0.34438323	          0.10419582	          0.07737657	          0.19817100	          0.04812262	          0.01000000	          0.04756173	          0.01000001	          0.01000000	          0.65693480	          0.18367653	          0.01000000	          0.01000000	          0.03244658	          0.04728729	          0.03552054	          0.07316189	          0.01747231	          0.48375351	          0.01000010	          0.01017589	          0.12109675	          0.24136366	          0.01000000	
          0.06133040	         -5.89019159	          0.53748019	          2.45480233	          0.08486363	          0.92547378	         -0.00367579	         31.30108779	         -1.60467098	         -4.05120642	        -15.54286292	         -0.83847291	          0.11477163	        -10.10143379	         -0.73405805	         -9.14522515	        -19.82059336	          2.24163979	         41.72105041	         -5.60420686	          0.00704495	         -5.91107404	          0.17236335	          0.05117323	          0.01000001	          0.19099261	          0.33758136	          0.10276950	          0.06424308	          0.20287634	          0.03995453	          0.01000000	          0.10448110	          0.01000000	          0.00999999	          0.64855439	          0.21790772	          0.01000000	          0.01000000	          0.02693926	          0.14474753	          0.05460445	          0.06074386	          0.01450665	          0.43055942	          0.01000003	          0.01000000	          0.10054240	          0.20039581	          0.00999999	
          0.07359648	         -5.87477083	          0.50615945	          2.39324680	          0.10143000	          0.92591617	         -0.00199982	         30.96590960	         -1.46192377	         -4.00620776	        -16.91842014	         -0.32396812	          0.12443618	         -9.09247438	         -1.23682485	         -9.50753495	        -23.23853516	          0.32172224	         43.00438413	         -5.40548414	          0.36382955	         -6.19559686	          0.16101149	          0.04248734	          0.01000001	          0.21899830	          0.29910390	          0.09717857	          0.05333880	          0.17297446	          0.03317285	          0.01000000	          0.18340242	          0.01000002	          0.01000000	          0.57155681	          0.24476335	          0.01000001	          0.01000000	          0.02236673	          0.19064891	          0.07069089	          0.06416555	          0.01204437	          0.35747896	          0.01000002	          0.00999999	          0.08347684	          0.16638164	          0.01000000	
          0.08586256	         -5.84536773	          0.44495638	          2.32273149	          0.11756923	          0.92717094	         -0.00029882	         30.46573555	         -1.26677507	         -3.92558524	        -18.05152629	          0.63963237	          0.27437565	         -7.73690727	         -1.84576758	         -9.88554685	        -27.16851023	         -1.70017457	         43.20481081	         -5.26040395	          0.74291739	         -6.43842563	          0.14959157	          0.03527576	          0.01000001	          0.23006832	          0.24833575	          0.09472192	          0.04428536	          0.14361473	          0.02754226	          0.01000000	          0.22168830	          0.01000003	          0.01000000	          0.48188870	          0.25448482	          0.01000000	          0.01000001	          0.01857031	          0.17147666	          0.05869560	          0.06480125	          0.01000002	          0.29680229	          0.01000002	          0.00999999	          0.06930790	          0.13814086	          0.00999999	
